# xmcd
#
# Track frame offsets:
#	225
#	17843
#	34612
#	51830
#	70546
#	88529
#	104486
#	123476
#	140644
#	159827
#	175350
#	192434
#
# Disc length: 2787 seconds
#
# Revision: 1
# Processed by: cddbd v1.5.2PL0 Copyright (c) Steve Scherf et al.
# Submitted via: audiograbber 1.83.01
#
DISCID=a00ae00c
DTITLE=Lonesome Riders - Morgen
DYEAR=1999
DGENRE=Country
TTITLE0=Wo ist die Else
TTITLE1=Mal wieder allein
TTITLE2=Morgen
TTITLE3=Ich lieb dich doch
TTITLE4=Ein alter Desperado
TTITLE5=Keine lügt so schön wie du
TTITLE6=Highway Cowboys
TTITLE7=Gib nicht auf
TTITLE8=Manchmal
TTITLE9=Heimweh
TTITLE10=Tag für Tag
TTITLE11=Träum deinen Traum
EXTD=
EXTT0=
EXTT1=
EXTT2=
EXTT3=
EXTT4=
EXTT5=
EXTT6=
EXTT7=
EXTT8=
EXTT9=
EXTT10=
EXTT11=
PLAYORDER=
